<svg width="30" height="30" viewBox="0 0 30 30" fill="none" xmlns="http://www.w3.org/2000/svg">
<path d="M12.1875 6.5625C10.6957 6.5625 9.26492 7.15513 8.21002 8.21002C7.15513 9.26492 6.5625 10.6957 6.5625 12.1875V18.75C6.5625 20.2418 7.15513 21.6726 8.21002 22.7275C9.26492 23.7824 10.6957 24.375 12.1875 24.375H18.75C20.2418 24.375 21.6726 23.7824 22.7275 22.7275C23.7824 21.6726 24.375 20.2418 24.375 18.75V14.0625C24.375 13.8139 24.2762 13.5754 24.1004 13.3996C23.9246 13.2238 23.6861 13.125 23.4375 13.125H22.5C22.2514 13.125 22.0129 13.0262 21.8371 12.8504C21.6613 12.6746 21.5625 12.4361 21.5625 12.1875C21.5625 10.6957 20.9699 9.26492 19.915 8.21002C18.8601 7.15513 17.4293 6.5625 15.9375 6.5625H12.1875ZM12.1875 11.25H15.9375C16.4531 11.25 16.875 11.6719 16.875 12.1875C16.875 12.7031 16.4531 13.125 15.9375 13.125H12.1875C11.6719 13.125 11.25 12.7031 11.25 12.1875C11.25 11.6719 11.6719 11.25 12.1875 11.25ZM12.1875 17.8125H18.75C19.2656 17.8125 19.6875 18.2344 19.6875 18.75C19.6875 19.2656 19.2656 19.6875 18.75 19.6875H12.1875C11.6719 19.6875 11.25 19.2656 11.25 18.75C11.25 18.2344 11.6719 17.8125 12.1875 17.8125Z" fill="white"/>
</svg>
