<svg width="100" height="100" viewBox="0 0 100 100" fill="none" xmlns="http://www.w3.org/2000/svg">
<path d="M34.3945 88.7305C34.3945 89.9603 34.7492 91.1602 35.4266 92.1855L38.7742 97.2031C39.7996 98.7412 42.1277 99.9922 43.9773 99.9922H56.0223C57.8656 99.9922 60.1941 98.742 61.2195 97.2031L64.5555 92.1875C65.1293 91.3207 65.6 89.7715 65.6 88.7305L65.625 81.0742H34.375L34.3945 88.7305ZM50 0C30.082 0.0625586 15.625 16.2051 15.625 34.1992C15.625 42.8672 18.8359 50.7695 24.1328 56.8164C27.3613 60.4961 32.4023 68.1895 34.332 74.6777C34.3381 74.7266 34.3504 74.7786 34.3564 74.8305H65.6455C65.6516 74.7787 65.6638 74.7296 65.6699 74.6777C67.5986 68.1895 72.6406 60.4961 75.8691 56.8164C81.1719 50.9375 84.375 43.0469 84.375 34.1992C84.375 15.3906 68.9844 0.000761719 50 0ZM68.8281 50.8008C65.7695 54.2871 61.9844 59.8437 59.248 65.623H40.7695C38.0332 59.8437 34.248 54.2871 31.1914 50.8027C27.1953 46.25 25 40.2539 25 34.1992C25 22.1289 34.3945 9.42383 49.8242 9.375C63.7891 9.375 75 20.5859 75 34.1992C75 40.2539 72.8125 46.25 68.8281 50.8008ZM46.875 15.625C38.2617 15.625 31.25 22.6367 31.25 31.25C31.25 32.9773 32.6477 34.375 34.375 34.375C36.1023 34.375 37.5 32.9688 37.5 31.25C37.5 26.0801 41.7051 21.875 46.875 21.875C48.6023 21.875 50 20.4789 50 18.752C50 17.025 48.5938 15.625 46.875 15.625Z" fill="white"/>
</svg>
