<svg width="100" height="100" viewBox="0 0 100 100" fill="none" xmlns="http://www.w3.org/2000/svg">
<g clip-path="url(#clip0_55_266)">
<path d="M59.375 9.375C59.375 14.5508 55.1758 18.75 50 18.75C44.8242 18.75 40.625 14.5508 40.625 9.375C40.625 4.19922 44.8242 -5.58794e-08 50 -5.58794e-08C55.1758 -5.58794e-08 59.375 4.19922 59.375 9.375ZM48.4375 68.75V93.75C48.4375 97.207 45.6445 100 42.1875 100C38.7305 100 35.9375 97.207 35.9375 93.75V50.1758L30.3516 59.4531C28.5742 62.4023 24.7266 63.3594 21.7773 61.582C18.8281 59.8047 17.8711 55.957 19.6484 53.0078L31.0352 34.0625C34.4336 28.418 40.5273 24.9609 47.1094 24.9609H52.9102C59.4922 24.9609 65.5859 28.418 68.9844 34.0625L80.3711 53.0078C82.1484 55.957 81.1914 59.8047 78.2422 61.582C75.293 63.3594 71.4453 62.4023 69.668 59.4531L64.0625 50.1758V93.75C64.0625 97.207 61.2695 100 57.8125 100C54.3555 100 51.5625 97.207 51.5625 93.75V68.75H48.4375ZM1.36719 1.36719C3.20312 -0.449219 6.17187 -0.449219 8.00781 1.36719L23.6328 16.9922C25.4688 18.8281 25.4688 21.7969 23.6328 23.6133C21.7969 25.4297 18.8281 25.4492 17.0117 23.6133L1.36719 8.00781C-0.449219 6.17187 -0.449219 3.20312 1.36719 1.36719ZM91.9922 1.36719C93.8281 -0.46875 96.7969 -0.46875 98.6133 1.36719C100.43 3.20312 100.449 6.17188 98.6133 7.98828L82.9883 23.6133C81.1523 25.4492 78.1836 25.4492 76.3672 23.6133C74.5508 21.7773 74.5312 18.8086 76.3672 16.9922L91.9922 1.36719ZM1.36719 98.6328C-0.46875 96.7969 -0.46875 93.8281 1.36719 92.0117L16.9922 76.3867C18.8281 74.5508 21.7969 74.5508 23.6133 76.3867C25.4297 78.2227 25.4492 81.1914 23.6133 83.0078L8.00781 98.6328C6.17187 100.469 3.20312 100.469 1.38672 98.6328H1.36719ZM91.9922 98.6328L76.3672 83.0078C74.5312 81.1719 74.5312 78.2031 76.3672 76.3867C78.2031 74.5703 81.1719 74.5508 82.9883 76.3867L98.6133 92.0117C100.449 93.8477 100.449 96.8164 98.6133 98.6328C96.7773 100.449 93.8086 100.469 91.9922 98.6328Z" fill="white"/>
</g>
<defs>
<clipPath id="clip0_55_266">
<rect width="100" height="100" fill="white"/>
</clipPath>
</defs>
</svg>
