<svg width="100" height="100" viewBox="0 0 100 100" fill="none" xmlns="http://www.w3.org/2000/svg">
<path d="M18.75 37.3242H6.25C2.79883 37.3242 0 40.123 0 43.3984V86.9727C0 90.4238 2.79883 93.0469 6.25 93.0469H18.75C22.2012 93.0469 25 90.248 25 86.9727V43.5742C25 40.293 22.207 37.3242 18.75 37.3242ZM100 44.3359C100 37.1309 94.1309 31.2656 86.9199 31.2656H67.416C69.2773 26.3867 70.3125 22.168 70.3125 19.6875C70.3125 13.0859 65.1953 6.25391 56.6289 6.25391C47.5254 6.25391 45.0352 12.5898 43.0332 17.6797C36.8496 33.4023 31.25 30.6465 31.25 35.9355C31.25 38.4434 33.2734 40.6211 35.9414 40.6211C36.968 40.6211 38.002 40.285 38.8652 39.5937C53.8574 27.6074 50.1875 15.6289 56.6289 15.6289C59.7695 15.6289 60.9375 18.1191 60.9375 19.6895C60.9375 21.1355 59.4543 27.4141 55.9473 33.6719C55.5477 34.384 55.3484 35.173 55.3484 35.9609C55.3484 38.6797 57.5809 40.4727 60.0359 40.4727H86.9109C88.9648 40.6445 90.625 42.3047 90.625 44.3359C90.625 46.2518 89.1082 47.8574 87.1738 47.9902C84.7012 48.1581 82.8066 50.2168 82.8066 52.666C82.8066 55.6875 85.0312 55.7813 85.0312 58.3125C85.0312 63.2676 78.1895 60.7227 78.1895 66.5449C78.1895 68.7363 79.4379 69.0898 79.4379 70.8906C79.4379 75.3164 73.6234 73.5781 73.6234 78.8281C73.6234 79.71 73.8402 79.9924 73.8402 80.675C73.8402 82.716 72.177 84.3762 70.1352 84.3762H59.8754C54.8715 84.3762 49.9105 82.7227 45.9105 79.7258L38.7504 74.3527C37.9076 73.7189 36.9203 73.4131 35.9418 73.4131C33.2367 73.4131 31.2484 75.6357 31.2484 78.1084C31.2484 79.5316 31.8953 80.9248 33.1227 81.8447L40.2848 87.2197C45.8984 91.4258 52.8516 93.75 59.8828 93.75H70.1426C77.043 93.75 82.7129 88.3809 83.1895 81.6016C86.6602 79.2129 88.8203 75.252 88.8203 70.8926C88.8203 70.2977 88.7776 69.6998 88.6952 69.1109C92.1796 66.7379 94.4139 62.7477 94.4139 58.3141C94.4139 57.2768 94.2888 56.2555 94.0477 55.2594C97.6367 52.7539 100 48.8672 100 44.3359Z" fill="white"/>
</svg>
